<svg height="512pt" viewBox="0 0 512.00107 512" width="512pt" xmlns="http://www.w3.org/2000/svg"><path d="m255.953125 511.910156c-68.367187 0-132.644531-26.625-180.988281-74.96875-48.339844-48.34375-74.964844-112.621094-74.964844-180.988281 0-65.023437 24.082031-126.347656 68.03125-173.78125l-23.53125-23.53125c-2.859375-2.859375-3.714844-7.160156-2.167969-10.898437 1.546875-3.734376 5.191407-6.171876 9.238281-6.171876h98.738282c5.519531 0 9.996094 4.476563 9.996094 10v98.734376c0 4.046874-2.4375 7.691406-6.171876 9.238281-3.738281 1.546875-8.035156.691406-10.894531-2.164063l-23.183593-23.1875c-64.191407 71.550782-61.894532 182.011719 6.878906 250.785156 34.460937 34.464844 80.28125 53.445313 129.019531 53.445313 5.523437 0 10 4.476563 10 9.996094v53.492187c0 5.523438-4.476563 10-10 10zm-180.246094-450.34375 13.398438 13.402344c1.875 1.875 2.929687 4.417969 2.929687 7.070312 0 2.652344-1.054687 5.195313-2.929687 7.070313-44.566407 44.5625-69.109375 103.820313-69.109375 166.84375 0 63.027344 24.542968 122.28125 69.109375 166.847656 42.203125 42.203125 97.574219 66.449219 156.851562 68.90625v-33.53125c-50.324219-2.429687-97.292969-23.183593-133.164062-59.058593-78.941407-78.9375-78.941407-207.382813 0-286.324219 3.902343-3.90625 10.234375-3.90625 14.140625 0l13.375 13.375v-64.601563zm0 0"/><path d="m460.339844 470.335938h-98.738282c-5.519531 0-9.996093-4.476563-9.996093-9.996094v-98.738282c0-4.042968 2.433593-7.691406 6.171875-9.238281 3.734375-1.546875 8.035156-.691406 10.894531 2.167969l23.183594 23.183594c64.1875-71.550782 61.894531-182.011719-6.878907-250.785156-34.460937-34.460938-80.285156-53.441407-129.023437-53.441407-5.519531 0-9.996094-4.476562-9.996094-10v-53.488281c0-5.523438 4.476563-10 9.996094-10 52.027344 0 102.070313 15.488281 144.726563 44.792969 4.550781 3.125 5.707031 9.351562 2.578124 13.902343-3.125 4.550782-9.355468 5.703126-13.902343 2.578126-36.566407-25.121094-79.042969-39.226563-123.402344-41.070313v33.53125c50.320313 2.429687 97.289063 23.183594 133.164063 59.058594 78.9375 78.9375 78.9375 207.382812 0 286.324219-1.875 1.875-4.417969 2.929687-7.070313 2.929687s-5.195313-1.054687-7.070313-2.929687l-13.375-13.378907v64.601563h64.597657l-13.398438-13.398438c-1.875-1.875-2.929687-4.417968-2.929687-7.070312s1.054687-5.195313 2.929687-7.070313c80.527344-80.527343 92.152344-206.917969 27.636719-300.535156-3.132812-4.542969-1.984375-10.769531 2.5625-13.90625 4.542969-3.132813 10.769531-1.984375 13.90625 2.5625 68.089844 98.804687 58.003906 231.265625-23.03125 318.8125l23.535156 23.535156c2.859375 2.859375 3.714844 7.160157 2.167969 10.894531-1.546875 3.738282-5.195313 6.171876-9.238281 6.171876zm0 0"/><path d="m233.167969 402.261719c-.949219 0-1.910157-.136719-2.855469-.417969-4.238281-1.261719-7.140625-5.160156-7.140625-9.582031v-104h-48.339844c-3.671875 0-7.050781-2.011719-8.796875-5.246094-1.746094-3.230469-1.578125-7.160156.433594-10.230469l103.90625-158.617187c2.425781-3.699219 6.984375-5.363281 11.222656-4.101563 4.238282 1.261719 7.140625 5.160156 7.140625 9.582032v103.867187h48.339844c3.671875 0 7.046875 2.015625 8.792969 5.246094 1.75 3.230469 1.582031 7.15625-.429688 10.230469l-103.90625 158.746093c-1.882812 2.875-5.058594 4.523438-8.367187 4.523438zm-39.832031-133.996094h39.832031c5.523437 0 10 4.476563 10 9.996094v80.46875l75.414062-115.21875h-39.84375c-5.519531 0-9.996093-4.476563-9.996093-10v-80.359375zm0 0"/><path d="m429.871094 92.035156c-2.628906 0-5.207032-1.070312-7.066406-2.929687-1.859376-1.859375-2.929688-4.429688-2.929688-7.070313 0-2.628906 1.070312-5.207031 2.929688-7.066406 1.859374-1.863281 4.4375-2.929688 7.066406-2.929688 2.632812 0 5.210937 1.066407 7.070312 2.929688 1.859375 1.867188 2.929688 4.4375 2.929688 7.066406s-1.070313 5.210938-2.929688 7.070313-4.4375 2.929687-7.070312 2.929687zm0 0"/></svg>