<?xml version="1.0" encoding="iso-8859-1"?>
<!-- Generator: Adobe Illustrator 19.0.0, SVG Export Plug-In . SVG Version: 6.00 Build 0)  -->
<svg version="1.1" id="Capa_1" xmlns="http://www.w3.org/2000/svg" xmlns:xlink="http://www.w3.org/1999/xlink" x="0px" y="0px"
	 viewBox="0 0 512 512" style="enable-background:new 0 0 512 512;" xml:space="preserve">
<path style="fill:#FDBF00;" d="M360.7,252.7c1.201,4.799-0.3,10.199-4.2,13.799L256,367l-49.501,49.499
	c-5.099,5.4-13.2,6-19.199,1.8c-6-4.499-8.101-12.299-4.801-18.9l52.2-104.7l-73.499-24.6c-4.801-1.5-8.701-5.7-9.901-10.8
	c-1.201-4.799,0.3-10.201,4.2-13.801l150-150c5.099-5.4,13.2-5.999,19.199-1.8c6,4.501,8.101,12.301,4.801,18.9l-52.2,104.7
	l73.499,24.6C355.6,243.399,359.5,247.599,360.7,252.7z"/>
<g>
	<path style="fill:#54E360;" d="M512,256c0,8.399-6.599,15-15,15s-15-6.601-15-15c0-124.2-101.8-226-226-226
		c-72.001,0-140.2,35.799-182.199,92.8l30.298-1.8c8.101-0.3,15.3,5.7,15.901,14.099c0.601,8.101-5.7,15.3-14.099,15.901l-60,3.6
		C37.5,155.2,30,147.4,30,139.6V76c0-8.401,6.599-15,15-15s15,6.599,15,15v16.5C107.999,35.499,179.801,0,256,0
		C396.7,0,512,115.3,512,256z"/>
	<path style="fill:#54E360;" d="M482,372.4V436c0,8.399-6.599,15-15,15s-15-6.601-15-15v-16.5C404.001,476.499,332.199,512,256,512
		C115.3,512,0,396.7,0,256c0-8.401,6.599-15,15-15s15,6.599,15,15c0,124.2,101.8,226,226,226c72.001,0,140.2-35.801,182.199-92.8
		l-30.298,1.8c-8.101,0.599-15.3-5.7-15.901-14.101c-0.601-8.099,5.7-15.3,14.099-15.899l60-3.6C474.2,356.8,482,363.999,482,372.4z
		"/>
</g>
<path style="fill:#FF9F00;" d="M356.499,266.499L256,367V145l49.501-49.501c5.099-5.4,13.2-5.999,19.199-1.8
	c6,4.501,8.101,12.301,4.801,18.9l-52.2,104.7l73.499,24.6c4.801,1.5,8.701,5.7,9.901,10.801
	C361.901,257.5,360.399,262.899,356.499,266.499z"/>
<g>
	<path style="fill:#00CC71;" d="M482,372.4V436c0,8.399-6.599,15-15,15s-15-6.601-15-15v-16.5C404.001,476.499,332.199,512,256,512
		v-30c72.001,0,140.2-35.801,182.199-92.8l-30.298,1.8c-8.101,0.599-15.3-5.7-15.901-14.101c-0.601-8.099,5.7-15.3,14.099-15.899
		l60-3.6C474.2,356.8,482,363.999,482,372.4z"/>
	<path style="fill:#00CC71;" d="M512,256c0,8.399-6.599,15-15,15s-15-6.601-15-15c0-124.2-101.8-226-226-226V0
		C396.7,0,512,115.3,512,256z"/>
</g>
<g>
</g>
<g>
</g>
<g>
</g>
<g>
</g>
<g>
</g>
<g>
</g>
<g>
</g>
<g>
</g>
<g>
</g>
<g>
</g>
<g>
</g>
<g>
</g>
<g>
</g>
<g>
</g>
<g>
</g>
</svg>
